# xmcd CD database file
#
# Track frame offsets:
#	150
#	23687
#	47655
#	72867
#	90947
#	117652
#	141637
#	171602
#	194010
#	219520
#
# Disc length: 3264 seconds
#
# Revision: 0
# Processed by: cddbd v1.5.1PL2 Copyright (c) Steve Scherf et al.
# Submitted via: CDex 1.50
#
DISCID=990cbe0a
DTITLE=Maciré Sylla, Guinée - Sarefi
DYEAR=2003
DGENRE=World - African
TTITLE0=M'na (Ma mère)
TTITLE1=Woyalla (Ô mon dieu)
TTITLE2=Niaroui moufan (La méchanceté n'est pas bonne)
TTITLE3=Saboui (Le bienfait)
TTITLE4=Ranoun (L'amour)
TTITLE5=Kébando (Ils sont venus)
TTITLE6=Oublier
TTITLE7=Sarefi (La récompense)
TTITLE8=Tinabora (Après demain)
TTITLE9=Cé nionmané (Tout va finir)
EXTD=YEAR: 2003
EXTT0=
EXTT1=
EXTT2=
EXTT3=
EXTT4=
EXTT5=
EXTT6=
EXTT7=
EXTT8=
EXTT9=
PLAYORDER=
